<svg width="354" height="812" viewBox="0 0 354 812" fill="none" xmlns="http://www.w3.org/2000/svg">
<path d="M274.146 832.582C225.171 813.815 190.21 764.487 190.21 706.587C190.21 702.399 190.391 698.255 190.75 694.164" stroke="#EAC2B2" stroke-opacity="0.05" stroke-width="2" stroke-miterlimit="10"/>
<path d="M190.968 695.655C193.565 746.855 233.941 787.531 283.365 787.531C286.817 787.531 290.224 787.332 293.58 786.945" stroke="#EAC2B2" stroke-opacity="0.05" stroke-width="2" stroke-miterlimit="10"/>
<path d="M293.578 786.949C284.257 837.69 241.866 876.047 190.802 876.047C139.746 876.047 96.7684 837.681 87.4395 786.949" stroke="#EAC2B2" stroke-opacity="0.05" stroke-width="2" stroke-miterlimit="10"/>
<path d="M87.4395 786.945C90.793 787.332 94.2008 787.531 97.652 787.531C147.079 787.531 187.453 746.855 190.05 695.655" stroke="#EAC2B2" stroke-opacity="0.05" stroke-width="2" stroke-miterlimit="10"/>
<path d="M106.863 832.586C155.838 813.819 190.798 764.491 190.798 706.591C190.798 702.403 190.615 698.259 190.257 694.168" stroke="#EAC2B2" stroke-opacity="0.05" stroke-width="2" stroke-miterlimit="10"/>
<path d="M27.0584 -94.6062L-200.341 144.129" stroke="#EAC2B2" stroke-opacity="0.05" stroke-width="2" stroke-miterlimit="10"/>
<path d="M86.3857 78.4648C51.3141 78.4648 22.8843 48.6224 22.8843 11.8096C22.8843 10.8386 22.9016 9.87109 22.9433 8.91062" stroke="#EAC2B2" stroke-opacity="0.05" stroke-width="2" stroke-miterlimit="10"/>
<path d="M68.0978 -37.4874L-200.341 244.273" stroke="#EAC2B2" stroke-opacity="0.05" stroke-width="2" stroke-miterlimit="10"/>
<path d="M105.438 33.2383C82.3035 30.499 64.3252 9.89306 64.3252 -15.1204C64.3252 -23.1851 66.1955 -30.7926 69.5049 -37.4897" stroke="#EAC2B2" stroke-opacity="0.05" stroke-width="2" stroke-miterlimit="10"/>
<path d="M22.6042 10.6211C-24.7598 10.6211 -63.1558 -29.6804 -63.1558 -79.3961C-63.1558 -84.5794 -62.7392 -89.661 -61.9376 -94.6033" stroke="#EAC2B2" stroke-opacity="0.05" stroke-width="2" stroke-miterlimit="10"/>
<path d="M87.0518 78.4082C84.7176 100.178 67.1184 117.098 45.7542 117.098C42.0661 117.098 38.4909 116.594 35.0869 115.647" stroke="#EAC2B2" stroke-opacity="0.05" stroke-width="2" stroke-miterlimit="10"/>
<path d="M35.0865 115.645C35.9798 119.203 36.4597 122.936 36.4597 126.789C36.4597 150.882 17.8511 170.414 -5.10263 170.414C-8.79008 170.414 -12.3615 169.908 -15.7661 168.962" stroke="#EAC2B2" stroke-opacity="0.05" stroke-width="2" stroke-miterlimit="10"/>
<path d="M353.616 -94.6062L581.015 144.129" stroke="#EAC2B2" stroke-opacity="0.05" stroke-width="2" stroke-miterlimit="10"/>
<path d="M294.29 78.4688C329.361 78.4687 357.791 48.6263 357.791 11.8135C357.791 10.8425 357.773 9.875 357.733 8.91453" stroke="#EAC2B2" stroke-opacity="0.05" stroke-width="2" stroke-miterlimit="10"/>
<path d="M312.573 -37.4874L581.01 244.273" stroke="#EAC2B2" stroke-opacity="0.05" stroke-width="2" stroke-miterlimit="10"/>
<path d="M275.237 33.2383C298.368 30.499 316.345 9.89306 316.345 -15.1204C316.345 -23.1851 314.476 -30.7926 311.166 -37.4897" stroke="#EAC2B2" stroke-opacity="0.05" stroke-width="2" stroke-miterlimit="10"/>
<path d="M293.623 78.4082C295.958 100.178 313.556 117.098 334.92 117.098C338.607 117.098 342.181 116.594 345.587 115.647" stroke="#EAC2B2" stroke-opacity="0.05" stroke-width="2" stroke-miterlimit="10"/>
<path d="M345.578 115.645C344.684 119.203 344.204 122.936 344.204 126.789C344.204 150.882 362.812 170.414 385.767 170.414C389.454 170.414 393.029 169.908 396.431 168.962" stroke="#EAC2B2" stroke-opacity="0.05" stroke-width="2" stroke-miterlimit="10"/>
<path d="M30.7963 963.84L-200.341 721.183" stroke="#EAC2B2" stroke-opacity="0.05" stroke-width="2" stroke-miterlimit="10"/>
<path d="M86.3857 786.848C51.3141 786.848 22.8843 816.69 22.8843 853.502C22.8843 854.473 22.9016 855.439 22.9433 856.402" stroke="#EAC2B2" stroke-opacity="0.05" stroke-width="2" stroke-miterlimit="10"/>
<path d="M68.0978 902.801L-200.341 621.04" stroke="#EAC2B2" stroke-opacity="0.05" stroke-width="2" stroke-miterlimit="10"/>
<path d="M87.0518 786.906C84.7176 765.138 67.1184 748.218 45.7542 748.218C42.0661 748.218 38.4909 748.723 35.0869 749.67" stroke="#EAC2B2" stroke-opacity="0.05" stroke-width="2" stroke-miterlimit="10"/>
<path d="M35.0865 749.668C35.9798 746.11 36.4597 742.375 36.4597 738.523C36.4597 714.431 17.8511 694.898 -5.10263 694.898C-8.79008 694.898 -12.3615 695.406 -15.7661 696.35" stroke="#EAC2B2" stroke-opacity="0.05" stroke-width="2" stroke-miterlimit="10"/>
<path d="M349.874 963.84L581.012 721.183" stroke="#EAC2B2" stroke-opacity="0.05" stroke-width="2" stroke-miterlimit="10"/>
<path d="M294.29 786.848C329.361 786.848 357.791 816.69 357.791 853.502C357.791 854.473 357.773 855.439 357.733 856.402" stroke="#EAC2B2" stroke-opacity="0.05" stroke-width="2" stroke-miterlimit="10"/>
<path d="M312.573 902.801L581.01 621.04" stroke="#EAC2B2" stroke-opacity="0.05" stroke-width="2" stroke-miterlimit="10"/>
<path d="M293.623 786.906C295.958 765.138 313.556 748.218 334.92 748.218C338.607 748.218 342.181 748.723 345.587 749.67" stroke="#EAC2B2" stroke-opacity="0.05" stroke-width="2" stroke-miterlimit="10"/>
<path d="M345.576 749.668C344.682 746.11 344.201 742.375 344.201 738.523C344.201 714.431 362.81 694.898 385.764 694.898C389.452 694.898 393.026 695.406 396.429 696.35" stroke="#EAC2B2" stroke-opacity="0.05" stroke-width="2" stroke-miterlimit="10"/>
<path d="M106.673 32.3069C155.652 51.0765 190.618 100.41 190.618 158.316C190.618 162.503 190.435 166.649 190.077 170.742" stroke="#EAC2B2" stroke-opacity="0.05" stroke-width="2" stroke-miterlimit="10"/>
<path d="M189.872 169.246C187.276 118.041 146.896 77.3606 97.4641 77.3606C94.015 77.3606 90.6055 77.5589 87.252 77.9453" stroke="#EAC2B2" stroke-opacity="0.05" stroke-width="2" stroke-miterlimit="10"/>
<path d="M87.252 77.9453C96.5729 27.1998 138.968 -11.1619 190.037 -11.1619C241.099 -11.1619 284.083 27.2092 293.413 77.9453" stroke="#EAC2B2" stroke-opacity="0.05" stroke-width="2" stroke-miterlimit="10"/>
<path d="M293.413 77.9453C290.058 77.5589 286.652 77.3606 283.199 77.3606C233.767 77.3606 193.388 118.041 190.79 169.246" stroke="#EAC2B2" stroke-opacity="0.05" stroke-width="2" stroke-miterlimit="10"/>
<path d="M273.983 32.3069C225.003 51.0765 190.038 100.41 190.038 158.316C190.038 162.503 190.22 166.649 190.58 170.742" stroke="#EAC2B2" stroke-opacity="0.05" stroke-width="2" stroke-miterlimit="10"/>
</svg>
